<?xml version="1.0" encoding="UTF-8" standalone="no"?><!DOCTYPE svg PUBLIC "-//W3C//DTD SVG 1.1//EN" "http://www.w3.org/Graphics/SVG/1.1/DTD/svg11.dtd"><svg width="100%" height="100%" viewBox="0 0 600 573" version="1.1" xmlns="http://www.w3.org/2000/svg" xmlns:xlink="http://www.w3.org/1999/xlink" xml:space="preserve" xmlns:serif="http://www.serif.com/" style="fill-rule:evenodd;clip-rule:evenodd;stroke-linecap:round;stroke-linejoin:round;stroke-miterlimit:1.5;"><g><path d="M480.25,214.915c-126.282,-184.464 -246.362,-182.677 -360.645,-0l-0,297.655l360.645,0l-0,-297.655Z" style="fill:#7d7d7d;stroke:#000;stroke-width:4.17px;"/><path d="M412.146,518.199c11.373,-25.688 17.36,-54.828 17.36,-84.49c-0,-93.263 -58.062,-168.98 -129.579,-168.98c-71.516,-0 -129.579,75.717 -129.579,168.98c0,29.662 5.988,58.802 17.361,84.49l224.437,-0Z" style="fill:#363636;stroke:#000;stroke-width:8.33px;"/><path d="M299.927,77.236l180.323,148.74l-360.645,-0l180.322,-148.74Z" style="fill:#c97a3d;stroke:#000;stroke-width:4.17px;"/><path d="M299.927,134.426c10.962,-18.631 32.887,-18.631 43.849,-11.179c10.963,7.453 10.963,22.357 0,37.262c-7.673,11.178 -27.405,22.357 -43.849,29.809c-16.443,-7.452 -36.176,-18.631 -43.849,-29.809c-10.962,-14.905 -10.962,-29.809 -0,-37.262c10.962,-7.452 32.887,-7.452 43.849,11.179Z" style="fill:#c90000;stroke:#000;stroke-width:4.17px;"/><g><path d="M447.213,305.84c-2.955,4.005 -17.964,8.126 -22.55,6.043c-9.897,-3.565 -12.749,-9.017 -4.663,-17.4c1.247,-1.42 1.626,-2.853 0.881,-4.301c-0.107,-4.367 2.199,-7.356 7.782,-8.471c5.392,-1.825 8.883,-0.39 10.974,3.445c0.079,1.627 1.124,2.678 2.913,3.284c11.195,3.217 11.451,9.365 4.663,17.4Z" style="fill:#fffeff;stroke:#000;stroke-width:2.08px;"/><path d="M437.14,268.356c-0.699,-2.608 -3.384,-4.158 -5.992,-3.46c-2.608,0.699 -4.158,3.384 -3.46,5.993l1.007,3.758c0.699,2.608 3.384,4.158 5.992,3.459c2.609,-0.699 4.159,-3.384 3.46,-5.992l-1.007,-3.758Z" style="fill:#fffeff;stroke:#000;stroke-width:2.08px;"/><path d="M414.644,274.384c-0.699,-2.608 0.851,-5.293 3.459,-5.992c2.608,-0.699 5.293,0.851 5.992,3.459l1.007,3.758c0.699,2.609 -0.851,5.294 -3.459,5.993c-2.609,0.698 -5.293,-0.852 -5.992,-3.46l-1.007,-3.758Z" style="fill:#fffeff;stroke:#000;stroke-width:2.08px;"/><path d="M451.122,275.722c-0.699,-2.608 -3.384,-4.158 -5.992,-3.459c-2.608,0.698 -4.158,3.383 -3.46,5.992l1.007,3.758c0.699,2.608 3.384,4.158 5.993,3.459c2.608,-0.699 4.158,-3.384 3.459,-5.992l-1.007,-3.758Z" style="fill:#fffeff;stroke:#000;stroke-width:2.08px;"/><path d="M406.218,287.754c-0.699,-2.608 0.851,-5.293 3.459,-5.992c2.609,-0.699 5.294,0.851 5.992,3.46l1.007,3.758c0.699,2.608 -0.851,5.293 -3.459,5.992c-2.608,0.699 -5.293,-0.852 -5.992,-3.46l-1.007,-3.758Z" style="fill:#fffeff;stroke:#000;stroke-width:2.08px;"/><path d="M152.642,305.84c2.955,4.005 17.964,8.126 22.55,6.043c9.896,-3.565 12.748,-9.017 4.662,-17.4c-1.246,-1.42 -1.626,-2.853 -0.881,-4.301c0.107,-4.367 -2.199,-7.356 -7.781,-8.471c-5.393,-1.825 -8.884,-0.39 -10.975,3.445c-0.079,1.627 -1.124,2.678 -2.913,3.284c-11.195,3.217 -11.45,9.365 -4.662,17.4Z" style="fill:#fffeff;stroke:#000;stroke-width:2.08px;"/><path d="M162.714,268.356c0.699,-2.608 3.384,-4.158 5.992,-3.46c2.609,0.699 4.159,3.384 3.46,5.993l-1.007,3.758c-0.699,2.608 -3.384,4.158 -5.992,3.459c-2.608,-0.699 -4.158,-3.384 -3.46,-5.992l1.007,-3.758Z" style="fill:#fffeff;stroke:#000;stroke-width:2.08px;"/><path d="M185.211,274.384c0.699,-2.608 -0.852,-5.293 -3.46,-5.992c-2.608,-0.699 -5.293,0.851 -5.992,3.459l-1.007,3.758c-0.699,2.609 0.851,5.294 3.46,5.993c2.608,0.698 5.293,-0.852 5.992,-3.46l1.007,-3.758Z" style="fill:#fffeff;stroke:#000;stroke-width:2.08px;"/><path d="M148.732,275.722c0.699,-2.608 3.384,-4.158 5.992,-3.459c2.609,0.698 4.159,3.383 3.46,5.992l-1.007,3.758c-0.699,2.608 -3.384,4.158 -5.992,3.459c-2.608,-0.699 -4.159,-3.384 -3.46,-5.992l1.007,-3.758Z" style="fill:#fffeff;stroke:#000;stroke-width:2.08px;"/><path d="M193.637,287.754c0.698,-2.608 -0.852,-5.293 -3.46,-5.992c-2.608,-0.699 -5.293,0.851 -5.992,3.46l-1.007,3.758c-0.699,2.608 0.851,5.293 3.459,5.992c2.609,0.699 5.294,-0.852 5.993,-3.46l1.007,-3.758Z" style="fill:#fffeff;stroke:#000;stroke-width:2.08px;"/></g><path d="M144.822,365.039c2.387,2.847 13.559,5.099 16.777,3.271c6.999,-3.244 8.757,-7.511 2.377,-13.364c-0.991,-0.998 -1.351,-2.055 -0.894,-3.188c-0.178,-3.294 -2.032,-5.413 -6.163,-5.936c-4.035,-1.069 -6.493,0.209 -7.791,3.215c0.037,1.229 -0.662,2.08 -1.93,2.638c-7.964,3.056 -7.79,7.699 -2.376,13.364Z" style="fill:#fffeff;stroke:#000;stroke-width:1.67px;"/><path d="M149.981,336.145c0.346,-1.947 2.202,-3.22 4.143,-2.842c1.94,0.379 3.235,2.266 2.888,4.213l-0.549,3.091c-0.346,1.947 -2.203,3.22 -4.143,2.842c-1.941,-0.378 -3.235,-2.266 -2.889,-4.213l0.55,-3.091Z" style="fill:#fffeff;stroke:#000;stroke-width:1.67px;"/><path d="M166.718,339.409c0.346,-1.947 -0.949,-3.835 -2.889,-4.213c-1.941,-0.379 -3.797,0.895 -4.143,2.842l-0.55,3.091c-0.346,1.946 0.948,3.834 2.889,4.213c1.94,0.378 3.797,-0.895 4.143,-2.842l0.55,-3.091Z" style="fill:#fffeff;stroke:#000;stroke-width:1.67px;"/><path d="M140.229,342.483c0.346,-1.947 2.203,-3.22 4.143,-2.842c1.941,0.379 3.235,2.266 2.889,4.213l-0.55,3.091c-0.346,1.947 -2.202,3.22 -4.143,2.842c-1.94,-0.378 -3.235,-2.266 -2.889,-4.213l0.55,-3.091Z" style="fill:#fffeff;stroke:#000;stroke-width:1.67px;"/><g><path d="M138.846,429.335c2.265,1.914 11.357,2.165 13.639,0.289c5.062,-3.504 5.864,-7.099 0.05,-10.833c-0.916,-0.65 -1.343,-1.432 -1.137,-2.385c-0.588,-2.567 -2.335,-3.981 -5.655,-3.83c-3.318,-0.291 -5.077,1.049 -5.689,3.589c0.197,0.962 -0.237,1.726 -1.158,2.337c-5.847,3.488 -5.079,7.115 -0.05,10.833Z" style="fill:#fffeff;stroke:#000;stroke-width:1.25px;"/><path d="M138.97,405.911c0.007,-1.578 1.294,-2.832 2.871,-2.799c1.578,0.034 2.852,1.342 2.845,2.92l-0.011,2.506c-0.007,1.578 -1.294,2.832 -2.872,2.798c-1.577,-0.033 -2.852,-1.341 -2.845,-2.919l0.012,-2.506Z" style="fill:#fffeff;stroke:#000;stroke-width:1.25px;"/><path d="M152.576,406.199c0.007,-1.578 -1.268,-2.886 -2.845,-2.92c-1.578,-0.033 -2.864,1.221 -2.872,2.799l-0.011,2.506c-0.007,1.578 1.268,2.886 2.845,2.919c1.578,0.034 2.864,-1.22 2.872,-2.798l0.011,-2.506Z" style="fill:#fffeff;stroke:#000;stroke-width:1.25px;"/><path d="M132.164,412.222c0.007,-1.578 1.294,-2.832 2.871,-2.798c1.578,0.033 2.853,1.341 2.845,2.919l-0.011,2.506c-0.007,1.578 -1.294,2.832 -2.872,2.799c-1.577,-0.034 -2.852,-1.342 -2.845,-2.92l0.012,-2.506Z" style="fill:#fffeff;stroke:#000;stroke-width:1.25px;"/><path d="M159.323,412.798c0.007,-1.579 -1.268,-2.887 -2.845,-2.92c-1.578,-0.034 -2.865,1.22 -2.872,2.798l-0.011,2.506c-0.007,1.578 1.267,2.887 2.845,2.92c1.577,0.033 2.864,-1.221 2.871,-2.799l0.012,-2.505Z" style="fill:#fffeff;stroke:#000;stroke-width:1.25px;"/><path d="M461.008,429.335c-2.264,1.914 -11.357,2.165 -13.639,0.289c-5.061,-3.504 -5.863,-7.099 -0.049,-10.833c0.915,-0.65 1.342,-1.432 1.136,-2.385c0.589,-2.567 2.335,-3.981 5.655,-3.83c3.318,-0.291 5.078,1.049 5.69,3.589c-0.197,0.962 0.237,1.726 1.158,2.337c5.847,3.488 5.078,7.115 0.049,10.833Z" style="fill:#fffeff;stroke:#000;stroke-width:1.25px;"/><path d="M460.885,405.911c-0.008,-1.578 -1.294,-2.832 -2.872,-2.799c-1.577,0.034 -2.852,1.342 -2.845,2.92l0.012,2.506c0.007,1.578 1.293,2.832 2.871,2.798c1.578,-0.033 2.852,-1.341 2.845,-2.919l-0.011,-2.506Z" style="fill:#fffeff;stroke:#000;stroke-width:1.25px;"/><path d="M447.278,406.199c-0.007,-1.578 1.268,-2.886 2.846,-2.92c1.577,-0.033 2.864,1.221 2.871,2.799l0.011,2.506c0.008,1.578 -1.267,2.886 -2.845,2.919c-1.577,0.034 -2.864,-1.22 -2.871,-2.798l-0.012,-2.506Z" style="fill:#fffeff;stroke:#000;stroke-width:1.25px;"/><path d="M467.691,412.222c-0.008,-1.578 -1.294,-2.832 -2.872,-2.798c-1.577,0.033 -2.852,1.341 -2.845,2.919l0.012,2.506c0.007,1.578 1.293,2.832 2.871,2.799c1.577,-0.034 2.852,-1.342 2.845,-2.92l-0.011,-2.506Z" style="fill:#fffeff;stroke:#000;stroke-width:1.25px;"/><path d="M440.532,412.798c-0.008,-1.579 1.267,-2.887 2.845,-2.92c1.577,-0.034 2.864,1.22 2.871,2.798l0.012,2.506c0.007,1.578 -1.268,2.887 -2.846,2.92c-1.577,0.033 -2.864,-1.221 -2.871,-2.799l-0.011,-2.505Z" style="fill:#fffeff;stroke:#000;stroke-width:1.25px;"/></g><g><path d="M145.646,480.414c2.256,1.171 9.811,-0.355 11.316,-2.361c3.471,-3.902 3.407,-7.065 -2.146,-9.084c-0.886,-0.37 -1.397,-0.944 -1.419,-1.781c-1.004,-2.038 -2.731,-2.889 -5.441,-2.129c-2.797,0.389 -3.979,1.847 -3.971,4.092c0.357,0.768 0.153,1.491 -0.484,2.179c-4.122,4.037 -2.756,6.929 2.145,9.084Z" style="fill:#fffeff;stroke:#000;stroke-width:1.25px;"/><path d="M141.011,460.729c-0.307,-1.301 0.506,-2.58 1.815,-2.853c1.309,-0.273 2.621,0.562 2.928,1.864l0.515,2.179c0.307,1.302 -0.506,2.58 -1.814,2.853c-1.309,0.274 -2.621,-0.561 -2.929,-1.863l-0.515,-2.18Z" style="fill:#fffeff;stroke:#000;stroke-width:1.25px;"/><path d="M152.3,458.374c-0.308,-1.302 -1.62,-2.137 -2.929,-1.863c-1.308,0.273 -2.121,1.551 -1.814,2.853l0.515,2.179c0.307,1.302 1.62,2.137 2.928,1.864c1.309,-0.273 2.122,-1.552 1.815,-2.853l-0.515,-2.18Z" style="fill:#fffeff;stroke:#000;stroke-width:1.25px;"/><path d="M136.668,467.315c-0.308,-1.301 0.505,-2.58 1.814,-2.853c1.309,-0.273 2.621,0.562 2.929,1.864l0.514,2.179c0.308,1.302 -0.505,2.58 -1.814,2.853c-1.309,0.273 -2.621,-0.562 -2.928,-1.863l-0.515,-2.18Z" style="fill:#fffeff;stroke:#000;stroke-width:1.25px;"/><path d="M159.2,462.614c-0.307,-1.302 -1.619,-2.137 -2.928,-1.864c-1.309,0.273 -2.122,1.552 -1.814,2.853l0.514,2.18c0.308,1.301 1.62,2.136 2.929,1.863c1.309,-0.273 2.121,-1.551 1.814,-2.853l-0.515,-2.179Z" style="fill:#fffeff;stroke:#000;stroke-width:1.25px;"/><path d="M454.665,480.414c-2.255,1.171 -9.81,-0.355 -11.315,-2.361c-3.471,-3.902 -3.407,-7.065 2.145,-9.084c0.887,-0.37 1.397,-0.944 1.42,-1.781c1.003,-2.038 2.73,-2.889 5.44,-2.129c2.798,0.389 3.979,1.847 3.971,4.092c-0.356,0.768 -0.152,1.491 0.485,2.179c4.122,4.037 2.755,6.929 -2.146,9.084Z" style="fill:#fffeff;stroke:#000;stroke-width:1.25px;"/><path d="M459.3,460.729c0.308,-1.301 -0.505,-2.58 -1.814,-2.853c-1.309,-0.273 -2.621,0.562 -2.928,1.864l-0.515,2.179c-0.308,1.302 0.505,2.58 1.814,2.853c1.309,0.274 2.621,-0.561 2.928,-1.863l0.515,-2.18Z" style="fill:#fffeff;stroke:#000;stroke-width:1.25px;"/><path d="M448.012,458.374c0.307,-1.302 1.619,-2.137 2.928,-1.863c1.309,0.273 2.122,1.551 1.814,2.853l-0.514,2.179c-0.308,1.302 -1.62,2.137 -2.929,1.864c-1.308,-0.273 -2.121,-1.552 -1.814,-2.853l0.515,-2.18Z" style="fill:#fffeff;stroke:#000;stroke-width:1.25px;"/><path d="M463.644,467.315c0.307,-1.301 -0.506,-2.58 -1.815,-2.853c-1.308,-0.273 -2.62,0.562 -2.928,1.864l-0.515,2.179c-0.307,1.302 0.506,2.58 1.815,2.853c1.308,0.273 2.621,-0.562 2.928,-1.863l0.515,-2.18Z" style="fill:#fffeff;stroke:#000;stroke-width:1.25px;"/><path d="M441.111,462.614c0.308,-1.302 1.62,-2.137 2.929,-1.864c1.308,0.273 2.121,1.552 1.814,2.853l-0.515,2.18c-0.307,1.301 -1.619,2.136 -2.928,1.863c-1.309,-0.273 -2.122,-1.551 -1.814,-2.853l0.514,-2.179Z" style="fill:#fffeff;stroke:#000;stroke-width:1.25px;"/></g><path d="M455.032,365.039c-2.386,2.847 -13.559,5.099 -16.777,3.271c-6.998,-3.244 -8.756,-7.511 -2.376,-13.364c0.991,-0.998 1.351,-2.055 0.893,-3.188c0.178,-3.294 2.033,-5.413 6.164,-5.936c4.034,-1.069 6.492,0.209 7.791,3.215c-0.038,1.229 0.661,2.08 1.929,2.638c7.964,3.056 7.791,7.699 2.376,13.364Z" style="fill:#fffeff;stroke:#000;stroke-width:1.67px;"/><g><path d="M309.497,173.238c-3.105,2.475 -15.613,2.655 -18.763,0.156c-6.985,-4.68 -8.108,-9.41 -0.13,-14.214c1.256,-0.839 1.839,-1.858 1.55,-3.112c0.795,-3.357 3.19,-5.184 7.759,-4.932c4.563,-0.328 6.992,1.459 7.848,4.803c-0.266,1.258 0.336,2.267 1.606,3.085c8.065,4.671 7.028,9.418 0.13,14.214Z" style="fill:#fffeff;stroke:#000;stroke-width:0.83px;"/><path d="M309.196,142.682c-0.02,-2.17 -1.798,-3.917 -3.968,-3.899c-2.17,0.018 -3.916,1.794 -3.897,3.964l0.027,2.927c0.02,2.171 1.798,3.918 3.968,3.9c2.17,-0.018 3.916,-1.795 3.897,-3.965l-0.027,-2.927Z" style="fill:#fffeff;stroke:#000;stroke-width:0.83px;"/><path d="M290.477,142.838c-0.02,-2.171 1.726,-3.947 3.897,-3.965c2.17,-0.018 3.948,1.729 3.968,3.899l0.026,2.927c0.02,2.171 -1.726,3.947 -3.896,3.965c-2.17,0.018 -3.948,-1.729 -3.968,-3.899l-0.027,-2.927Z" style="fill:#fffeff;stroke:#000;stroke-width:0.83px;"/><path d="M318.596,151.075c-0.02,-2.171 -1.798,-3.918 -3.969,-3.9c-2.17,0.018 -3.916,1.795 -3.896,3.965l0.027,2.927c0.02,2.17 1.798,3.918 3.968,3.9c2.17,-0.018 3.916,-1.795 3.896,-3.965l-0.026,-2.927Z" style="fill:#fffeff;stroke:#000;stroke-width:0.83px;"/><path d="M281.232,151.385c-0.02,-2.17 1.726,-3.947 3.896,-3.965c2.171,-0.018 3.949,1.729 3.969,3.9l0.026,2.927c0.02,2.17 -1.726,3.947 -3.896,3.965c-2.17,0.018 -3.948,-1.73 -3.968,-3.9l-0.027,-2.927Z" style="fill:#fffeff;stroke:#000;stroke-width:0.83px;"/></g><path d="M449.874,336.145c-0.346,-1.947 -2.203,-3.22 -4.143,-2.842c-1.941,0.379 -3.235,2.266 -2.889,4.213l0.55,3.091c0.346,1.947 2.202,3.22 4.143,2.842c1.94,-0.378 3.235,-2.266 2.888,-4.213l-0.549,-3.091Z" style="fill:#fffeff;stroke:#000;stroke-width:1.67px;"/><path d="M433.137,339.409c-0.346,-1.947 0.948,-3.835 2.888,-4.213c1.941,-0.379 3.797,0.895 4.144,2.842l0.549,3.091c0.346,1.946 -0.948,3.834 -2.888,4.213c-1.941,0.378 -3.797,-0.895 -4.144,-2.842l-0.549,-3.091Z" style="fill:#fffeff;stroke:#000;stroke-width:1.67px;"/><path d="M459.625,342.483c-0.346,-1.947 -2.202,-3.22 -4.143,-2.842c-1.94,0.379 -3.235,2.266 -2.888,4.213l0.549,3.091c0.346,1.947 2.203,3.22 4.143,2.842c1.941,-0.378 3.235,-2.266 2.889,-4.213l-0.55,-3.091Z" style="fill:#fffeff;stroke:#000;stroke-width:1.67px;"/><path d="M426.217,348.997c-0.346,-1.947 0.948,-3.834 2.889,-4.213c1.94,-0.378 3.797,0.895 4.143,2.842l0.55,3.091c0.346,1.947 -0.949,3.835 -2.889,4.213c-1.941,0.378 -3.797,-0.895 -4.143,-2.842l-0.55,-3.091Z" style="fill:#fffeff;stroke:#000;stroke-width:1.67px;"/><path d="M527.626,501.308c0,-6.216 -5.046,-11.262 -11.262,-11.262l-432.874,0c-6.215,0 -11.262,5.046 -11.262,11.262l0,22.524c0,6.216 5.047,11.262 11.262,11.262l432.874,0c6.216,0 11.262,-5.046 11.262,-11.262l0,-22.524Z" style="fill:#6a4223;stroke:#000;stroke-width:4.23px;"/><path d="M551.897,536.809c0,-6.216 -5.046,-11.262 -11.262,-11.262l-481.416,0c-6.216,0 -11.262,5.046 -11.262,11.262l0,22.524c0,6.216 5.046,11.262 11.262,11.262l481.416,0c6.216,0 11.262,-5.046 11.262,-11.262l0,-22.524Z" style="fill:#6a4223;stroke:#000;stroke-width:4.47px;"/><path d="M500.776,211.58c-0,-7.945 -6.451,-14.396 -14.396,-14.396l-372.906,0c-7.945,0 -14.395,6.451 -14.395,14.396l-0,28.791c-0,7.946 6.45,14.396 14.395,14.396l372.906,0c7.945,0 14.396,-6.45 14.396,-14.396l-0,-28.791Z" style="fill:#fff;stroke:#000;stroke-width:4.62px;"/><path d="M200.683,217.388l-6.047,0.968c0.263,-1.044 0.395,-1.917 0.395,-2.62c-0,-4.519 -3.166,-6.779 -9.498,-6.779c-4.995,-0 -7.492,1.557 -7.492,4.671c-0,2.336 2.793,4.339 8.38,6.01c10.778,3.209 16.168,7.956 16.168,14.242c-0,3.683 -1.512,6.641 -4.535,8.872c-3.023,2.231 -7.044,3.347 -12.061,3.347c-11.107,-0 -16.661,-3.731 -16.661,-11.194c0,-0.608 0.055,-1.358 0.164,-2.25l6.277,-1.196c-0.482,1.652 -0.723,3.085 -0.723,4.301c0,4.823 3.188,7.234 9.563,7.234c5.105,0 7.657,-1.737 7.657,-5.212c0,-2.583 -3.056,-4.852 -9.169,-6.808c-8.829,-2.81 -13.243,-7.301 -13.243,-13.472c-0,-3.494 1.473,-6.309 4.42,-8.445c2.947,-2.137 6.819,-3.205 11.617,-3.205c9.859,0 14.788,3.846 14.788,11.536Z" style="fill-rule:nonzero;stroke:#000;stroke-width:0.91px;stroke-linecap:butt;stroke-miterlimit:2;"/><path d="M221.288,226.047l-0,19.34l-13.014,-0l0,-38.88l13.014,0l-0,15.638l10.614,-0l0,-15.638l13.014,0l-0,38.88l-13.014,-0l0,-19.34l-10.614,-0Z" style="fill-rule:nonzero;stroke:#000;stroke-width:0.91px;stroke-linecap:butt;stroke-miterlimit:2;"/><path d="M281.689,206.507l-0,3.903l-16.07,-0l-0,11.763l13.506,0l0,3.902l-13.506,0l-0,15.41l18.797,-0l0,3.902l-31.811,-0l0,-38.88l29.084,0Z" style="fill-rule:nonzero;stroke:#000;stroke-width:0.91px;stroke-linecap:butt;stroke-miterlimit:2;"/><path d="M301.505,206.507l-0,34.978l18.435,-0l0,3.902l-31.449,-0l0,-38.88l13.014,0Z" style="fill-rule:nonzero;stroke:#000;stroke-width:0.91px;stroke-linecap:butt;stroke-miterlimit:2;"/><path d="M354.183,206.507l-0,3.903l-11.009,-0l0,34.977l-13.802,-0l-0,-34.977l-11.075,-0l0,-3.903l35.886,0Z" style="fill-rule:nonzero;stroke:#000;stroke-width:0.91px;stroke-linecap:butt;stroke-miterlimit:2;"/><path d="M386.618,206.507l0,3.903l-16.07,-0l0,11.763l13.507,0l-0,3.902l-13.507,0l0,15.41l18.798,-0l-0,3.902l-31.811,-0l-0,-38.88l29.083,0Z" style="fill-rule:nonzero;stroke:#000;stroke-width:0.91px;stroke-linecap:butt;stroke-miterlimit:2;"/><path d="M393.421,245.387l-0,-38.88l19.29,0c5.017,0 9.026,0.917 12.027,2.749c3.002,1.832 4.503,4.287 4.503,7.363c-0,4.709 -3.221,7.776 -9.662,9.2c3.308,1.063 5.45,2.231 6.425,3.503c0.975,1.273 1.637,3.741 1.988,7.406c0.416,4.367 1.26,7.254 2.53,8.659l-14.131,-0c-0.898,-1.804 -1.347,-4.054 -1.347,-6.751l-0.066,-2.307l-0.065,-2.905c-0,-4.481 -2.082,-6.722 -6.244,-6.722l-2.235,-0l0,18.685l-13.013,-0Zm13.013,-21.904l2.629,0c4.929,0 7.394,-2.231 7.394,-6.693c0,-4.463 -2.465,-6.694 -7.394,-6.694l-2.629,0l0,13.387Z" style="fill-rule:nonzero;stroke:#000;stroke-width:0.91px;stroke-linecap:butt;stroke-miterlimit:2;"/><path d="M93.328,264.729l-91.271,-0l297.87,-262.672l297.87,262.672l-91.271,-0l-206.599,-190.595l-206.599,190.595Z" style="fill:#6a4223;stroke:#000;stroke-width:4.11px;"/><g><path d="M176.949,349.094c0.346,-1.945 -0.948,-3.832 -2.887,-4.21c-1.939,-0.378 -3.795,0.894 -4.141,2.84l-0.549,3.089c-0.346,1.946 0.948,3.833 2.887,4.211c1.939,0.378 3.795,-0.895 4.141,-2.84l0.549,-3.09Z" style="fill:#fffeff;stroke:#000;stroke-width:0.83px;"/><g><path d="M340.342,392.539c-23.688,13.612 -47.694,13.245 -71.992,0c-6.902,-3.941 -11.401,-10.026 -13.442,-18.307c-6.739,-25.691 -5.898,-51.382 -0,-77.073c11.002,3.931 19.465,11.349 24.149,23.958c16.859,-8.567 33.718,-8.791 50.577,0c4.684,-12.609 13.147,-20.027 24.15,-23.958c5.898,25.691 6.738,51.382 -0,77.073c-2.041,8.281 -6.541,14.366 -13.442,18.307Z" style="fill:#ffcc4d;stroke:#000;stroke-width:3.96px;"/><ellipse cx="279.267" cy="344.849" rx="5.814" ry="5.768" style="stroke:#000;stroke-width:3.96px;"/><ellipse cx="279.429" cy="344.849" rx="2.345" ry="2.326" style="fill:#fff;stroke:#000;stroke-width:1.6px;"/><ellipse cx="329.425" cy="344.849" rx="5.814" ry="5.768" style="stroke:#000;stroke-width:3.96px;"/><path d="M304.346,356.551c1.125,-1.591 3.376,-1.591 4.501,-0.796c1.125,0.796 1.125,2.387 0,3.978c-0.788,1.193 -2.813,2.386 -4.501,3.181c-1.688,-0.795 -3.714,-1.988 -4.501,-3.181c-1.126,-1.591 -1.126,-3.182 -0,-3.978c1.125,-0.795 3.375,-0.795 4.501,0.796Z" style="stroke:#000;stroke-width:3.96px;"/><rect x="303.92" y="363.957" width="0.852" height="8.797" style="stroke:#000;stroke-width:1.98px;"/><ellipse cx="329.263" cy="344.849" rx="2.345" ry="2.326" style="fill:#fff;stroke:#000;stroke-width:1.6px;"/><g><ellipse cx="281.935" cy="361.532" rx="1.393" ry="1.382" style="stroke:#000;stroke-width:3.96px;"/><ellipse cx="326.756" cy="361.532" rx="1.393" ry="1.382" style="stroke:#000;stroke-width:3.96px;"/><ellipse cx="276.063" cy="369.216" rx="1.135" ry="1.126" style="stroke:#000;stroke-width:3.96px;"/><ellipse cx="332.628" cy="369.216" rx="1.135" ry="1.126" style="stroke:#000;stroke-width:3.96px;"/><ellipse cx="280.875" cy="377.792" rx="1.06" ry="1.052" style="stroke:#000;stroke-width:3.96px;"/><ellipse cx="327.816" cy="377.792" rx="1.06" ry="1.052" style="stroke:#000;stroke-width:3.96px;"/><path d="M326.784,361.532c14.458,-3.998 28.916,-4.344 43.374,0" style="fill:none;stroke:#000;stroke-width:1.99px;"/><path d="M281.908,361.532c-14.458,-3.998 -28.916,-4.344 -43.374,0" style="fill:none;stroke:#000;stroke-width:1.99px;"/><path d="M331.848,369.216c14.458,-1.49 28.916,0.672 43.374,7.524" style="fill:none;stroke:#000;stroke-width:1.98px;"/><path d="M276.843,369.216c-14.458,-1.49 -28.916,0.672 -43.374,7.524" style="fill:none;stroke:#000;stroke-width:1.98px;"/><path d="M327.262,378.064c14.458,-0.873 28.916,1.906 43.374,9.375" style="fill:none;stroke:#000;stroke-width:1.98px;"/><path d="M281.43,378.064c-14.458,-0.873 -28.916,1.906 -43.374,9.375" style="fill:none;stroke:#000;stroke-width:1.98px;"/></g></g><g><path d="M276.503,382.698c-8.507,-12.704 -18.291,-22.482 -30.35,-27.046c-2.864,-1.226 -5.717,-0.547 -8.559,2.514c-6.785,22.985 -5.386,45.34 -0.267,67.409c19.68,-8.618 32.948,-22.73 39.176,-42.877Z" style="fill:#fff;stroke:#000;stroke-width:2.85px;"/><path d="M332.189,382.698c8.506,-12.704 18.29,-22.482 30.35,-27.046c2.863,-1.226 5.717,-0.547 8.559,2.514c6.785,22.985 5.386,45.34 0.267,67.409c-19.68,-8.618 -32.949,-22.73 -39.176,-42.877Z" style="fill:#fff;stroke:#000;stroke-width:2.85px;"/><path d="M304.346,374.927c1.773,-3.557 5.528,-5.704 9.903,-7.409l5.629,12.395c4.221,-5.613 10.615,-8.462 18.496,-9.42c-2.71,4.594 -2.087,8.967 1.608,13.138c5.549,-5.755 11.417,-7.679 17.424,-7.933c-5.162,3.945 -7.867,8.494 -6.166,14.131l13.135,5.949l-8.578,1.24c12.353,5.166 20.702,11.952 25.734,20.08l-12.063,-0c13.228,8.015 23.232,16.031 28.682,24.046l-15.815,0.248c7.494,4.358 13.802,12.026 14.432,16.808c-5.87,-4.025 -11.856,-6.563 -18.185,-4.661c-0.21,3.422 1.47,6.719 7.667,9.718c-14.68,17.62 -37.06,25.527 -61.814,30.442c-6.509,1.117 -13.182,1.325 -20.089,0.231c-6.908,1.094 -13.58,0.886 -20.089,-0.231c-24.754,-4.915 -47.135,-12.822 -61.814,-30.442c6.197,-2.999 7.876,-6.296 7.666,-9.718c-6.328,-1.902 -12.314,0.636 -18.185,4.661c0.631,-4.782 6.939,-12.45 14.433,-16.808l-15.816,-0.248c5.451,-8.015 15.454,-16.031 28.682,-24.046l-12.062,-0c5.032,-8.128 13.381,-14.914 25.733,-20.08l-8.578,-1.24l13.135,-5.949c1.702,-5.637 -1.004,-10.186 -6.165,-14.131c6.007,0.254 11.874,2.178 17.424,7.933c3.694,-4.171 4.318,-8.544 1.608,-13.138c7.881,0.958 14.275,3.807 18.496,9.42l5.629,-12.395c4.375,1.705 8.13,3.852 9.903,7.409Z" style="fill:#fff;stroke:#000;stroke-width:3.26px;"/><ellipse cx="268.359" cy="414.475" rx="8.342" ry="8.276" style="stroke:#000;stroke-width:5.69px;"/><ellipse cx="268.591" cy="414.475" rx="3.365" ry="3.338" style="fill:#fff;stroke:#000;stroke-width:2.29px;"/><ellipse cx="340.333" cy="414.475" rx="8.342" ry="8.276" style="stroke:#000;stroke-width:5.69px;"/><path d="M304.346,430.847c2.175,-3.075 6.527,-3.075 8.703,-1.537c2.175,1.537 2.175,4.613 -0,7.689c-1.523,2.307 -5.44,4.614 -8.703,6.152c-3.264,-1.538 -7.18,-3.845 -8.703,-6.152c-2.176,-3.076 -2.176,-6.152 -0,-7.689c2.176,-1.538 6.527,-1.538 8.703,1.537Z" style="stroke:#000;stroke-width:7.66px;"/><ellipse cx="272.188" cy="438.415" rx="1.999" ry="1.983" style="stroke:#000;stroke-width:5.69px;"/><ellipse cx="336.504" cy="438.415" rx="1.999" ry="1.983" style="stroke:#000;stroke-width:5.69px;"/><ellipse cx="263.762" cy="449.44" rx="1.628" ry="1.615" style="stroke:#000;stroke-width:5.69px;"/><ellipse cx="344.93" cy="449.44" rx="1.628" ry="1.615" style="stroke:#000;stroke-width:5.69px;"/><ellipse cx="270.667" cy="461.746" rx="1.521" ry="1.509" style="stroke:#000;stroke-width:5.69px;"/><ellipse cx="338.025" cy="461.746" rx="1.521" ry="1.509" style="stroke:#000;stroke-width:5.69px;"/><path d="M336.543,438.415c20.747,-5.737 41.493,-6.234 62.24,-0" style="fill:none;stroke:#000;stroke-width:2.85px;"/><path d="M272.148,438.415c-20.746,-5.737 -41.493,-6.234 -62.239,-0" style="fill:none;stroke:#000;stroke-width:2.85px;"/><path d="M343.811,449.44c20.746,-2.138 41.493,0.964 62.239,10.797" style="fill:none;stroke:#000;stroke-width:2.85px;"/><path d="M264.881,449.44c-20.746,-2.138 -41.493,0.964 -62.24,10.797" style="fill:none;stroke:#000;stroke-width:2.85px;"/><path d="M337.229,462.137c20.746,-1.253 41.493,2.734 62.24,13.452" style="fill:none;stroke:#000;stroke-width:2.85px;"/><path d="M271.463,462.137c-20.747,-1.253 -41.493,2.734 -62.24,13.452" style="fill:none;stroke:#000;stroke-width:2.85px;"/><rect x="303.735" y="441.894" width="1.222" height="16.462" style="stroke:#000;stroke-width:3.3px;"/><ellipse cx="340.101" cy="414.475" rx="3.365" ry="3.338" style="fill:#fff;stroke:#000;stroke-width:2.29px;"/><path d="M229.233,470.575c-6.291,-2.509 -16.84,6.132 -15.886,8.277c-7.067,10.065 -5.729,18.87 -2.806,27.437c7.307,6.528 16.324,8.141 27.616,3.211c8.204,5.72 15.766,3.748 22.475,-8.465c3.319,-5.422 3.01,-8.648 1.345,-12.575c-13.875,-2.658 -24.317,-9.778 -32.744,-17.885Z" style="fill:#fefefe;stroke:#000;stroke-width:3.11px;"/><path d="M377.095,470.575c6.291,-2.509 16.839,6.132 15.886,8.277c7.067,10.065 5.729,18.87 2.806,27.437c-7.307,6.528 -16.324,8.141 -27.616,3.211c-8.204,5.72 -15.766,3.748 -22.476,-8.465c-3.318,-5.422 -3.76,-8.076 -2.095,-12.004c13.875,-2.658 25.068,-10.349 33.495,-18.456Z" style="fill:#fefefe;stroke:#000;stroke-width:3.11px;"/><path d="M319.648,458.355c1.55,1.598 2.367,3.41 2.367,5.255c-0,5.8 -7.917,16.581 -17.669,16.581c-9.752,0 -17.669,-10.781 -17.669,-16.581c-0,-1.845 0.816,-3.657 2.367,-5.255c10.201,3.935 20.402,3.989 30.604,0Z" style="stroke:#000;stroke-width:4.57px;"/></g><path d="M215.674,413.749c-1.685,4.012 5.446,10.074 7.069,9.374c8.09,3.839 14.857,2.558 21.375,0.31c4.756,-4.847 5.634,-10.495 1.348,-17.208c4.094,-5.358 2.254,-9.923 -7.486,-13.43c-4.338,-1.767 -7.715,-1.421 -10.69,-0.19c-9.175,4.56 -13.492,11.319 -11.616,21.144Z" style="fill:#ffcc4d;stroke:#000;stroke-width:4.16px;"/><path d="M390.654,413.749c1.685,4.012 -5.446,10.074 -7.069,9.374c-8.09,3.839 -14.858,2.558 -21.375,0.31c-4.756,-4.847 -5.634,-10.495 -1.348,-17.208c-4.094,-5.358 -2.254,-9.923 7.486,-13.43c4.338,-1.767 7.715,-1.421 10.69,-0.19c9.175,4.56 13.492,11.319 11.616,21.144Z" style="fill:#ffcc4d;stroke:#000;stroke-width:4.16px;"/></g></g></svg>